<svg width="364" height="22" viewBox="0 0 364 22" fill="none" xmlns="http://www.w3.org/2000/svg">
<path d="M1 6C21.1111 -0.666667 41.2222 -0.666667 61.3333 6C81.4444 12.6667 101.556 12.6667 121.667 6C141.778 -0.666667 161.889 -0.666667 182 6C202.111 12.6667 222.222 12.6667 242.333 6C262.444 -0.666667 282.556 -0.666667 302.667 6C322.778 12.6667 342.889 12.6667 363 6" stroke="#454444" stroke-opacity="0.5"/>
<path d="M1 16C21.1111 9.33333 41.2222 9.33333 61.3333 16C81.4444 22.6667 101.556 22.6667 121.667 16C141.778 9.33333 161.889 9.33333 182 16C202.111 22.6667 222.222 22.6667 242.333 16C262.444 9.33333 282.556 9.33333 302.667 16C322.778 22.6667 342.889 22.6667 363 16" stroke="#454444" stroke-opacity="0.5"/>
</svg>
