<?xml version="1.0" encoding="utf-8"?>
<!-- Generator: Adobe Illustrator 24.2.1, SVG Export Plug-In . SVG Version: 6.00 Build 0)  -->
<svg version="1.1" id="Layer_1" xmlns="http://www.w3.org/2000/svg" xmlns:xlink="http://www.w3.org/1999/xlink" x="0px" y="0px"
	 viewBox="0 0 810 810" style="enable-background:new 0 0 810 810;" xml:space="preserve">
<style type="text/css">
	.st0{fill:#231F20;}
</style>
<path class="st0" d="M675.2,384.3c0.1,0.6,3.2,2.5,7.4,5.1c4.6,1.3,12,4,19.5,9.7c3.6,2.8,12.5,9.8,17.6,22.3
	c3.4,8.3,3.7,17.9,5,26.6c1.5,10.4-0.7,19.4-4.2,29.2c-3.3,9.2-7.5,18.8-13.6,26.5c-2.7,3.4-5.6,6.5-8.2,10
	c-2.1,2.9-3.6,6.5-5.5,9.8c-1.6-2.7-3.3-5.4-5-8c-4-6.4-7.8-13-10.9-19.9c-3.6-8-4.8-16.2-5.4-24.8c-0.5-7.7-1.2-15.4-3.2-22.9
	c-0.9-3.4-2.3-6.6-3.5-9.8c0.4-5.3,1.7-10.7,2.4-15.9c0.8-5.5,1.8-11,2.4-16.5c1.2-10.9,0.4-23-1.4-34.1c0.3,0.6,0.7,1.3,1,1.9
	c1.7,3,3.3,6.5,5.4,9.4C675,382.9,674.9,382.9,675.2,384.3z M664.3,441.9c0.2,0.4,0.4,0.8,0.5,1.2c0.4,1.2,0.8,2.3,1.1,3.4
	c2.8,7.6,3.5,15.7,4.1,23.7c0.5,6.9,1,13.6,3,20.3c2,6.8,5.3,13.2,8.8,19.4c3.5,6.3,7.3,12.4,10.9,18.6c0.1,0.3,0.3,0.6,0.5,0.8
	c3.7,6.2,7.3,12.5,10.5,19c2.7,6.4,5.7,14.4,6.1,23.1c0.2,3.8-0.3,7.5,0.1,11.3c0.3,2.9,1.5,6.8-0.4,9.4c-0.1,0.1-0.1,0.1-0.1,0.2
	c-0.3,0.3-0.5,0.6-0.8,1c-2.1,3-5.9,2.8-9.2,3.4c-7.3,1.2-14.6,2.1-22,2.7c-13.9,1.1-28,1.6-41.9,3.1c-13.7,1.5-27.5,3.1-41.1,5.1
	c-6.8,1-13.4,2.8-20.1,3.9c-3.1,0.5-6.2,0.9-9.2,1.7c-3,0.7-7.2,1.8-10-0.4c0.9-1.2,1.7-2.4,2.4-3.7c1.2-2.1,0.9-4.6,2.6-6.4
	c1.3-1.4-0.8-3.6-2.2-2.2c-1.7,1.8-2.1,3.9-2.8,6.3c-1.1,3.7-4.6,7.1-8,8.6c-3.5,1.5-7.8,1.8-11.6,2.5c-2.1,0.4-4.3,0.7-6.5,1
	c-0.1,0-0.3,0.1-0.4,0.1c-0.8,0.3-2.8,0.4-2.8,0.4c-2.4,0.2-4.8,0.4-7.2,0.7c-1.2-0.3-3-0.7-4.2-0.9c-0.2-0.1-0.5-0.2-0.8-0.1
	c-1.1-3.1,0.1-7.4,0.7-10.2c1.1-4.9,3-10,7.4-12.9c1.6-1.1,0.1-3.7-1.5-2.6c-5.2,3.3-7.4,8.9-8.8,14.7c-1,3.9-1.9,8.8-0.3,12.6
	c-4.4,0.3-8.8,0.7-13.1,1.1c-0.7,0.1-3.5,0.3-3.5,0.3c-1,0.1-2,0.2-3,0.3c-2.2,0.2-4.5,0.4-7,0.6c0-0.9-0.7-1.8-1.8-1.4
	c-2.4,0.9-0.5-11.8-0.2-13c0.7-4.1,1.5-8.9,3.4-12.7c0.9-1.7-1.7-3.3-2.6-1.5c-1.5,2.9-6.7,22.8-3.7,28.8c-3.5-0.1-6.9-0.7-9.8-2.3
	c-1.3-0.3-3-2.3-3-2.3c-4.4-4.6-5.5-12.4-5.3-18.4c0.4-9.1,7.4-16.8,14.4-21.8c7.8-5.5,17.5-6.2,26.7-5.3c3.9,0.4,7.7,1.4,11.6,1.5
	c4.5,0.2,8.9-0.4,13.3,1c1.9,0.6,2.7-2.3,0.8-2.9c-4-1.3-8.3-1.1-12.4-1.1c-3.6,0-7.1-0.6-10.6-1.1c8.3-4.4,17-7.7,25.3-11.9
	c11.2-5.6,22.9-8.9,35.1-11.6c11.4-2.5,23-3.8,34-7.7c2.3-0.8,4.5-1.9,6.7-2.9c3.4-1.4,5.4-1.7,5.4-2.1c-0.1-0.6-5.4-0.3-7.8-0.1
	c-6.2,0.5-15.8,2.1-29,7.9c-1.1,0.2-2.3,0.4-3.4,0.6c-12.2,2.3-24.6,5.3-36,10.3c-0.5,0.2-0.9,0.4-1.4,0.6c-0.2-0.1-0.5-0.1-0.8-0.1
	c-17.9,3-36.2,6.2-52.3,15.1c-8.7,4.7-17.4,9.4-25.4,15.1c-3.4,2.4-6.7,4.9-9.9,7.5c-1.6,1.3-3.8,2.3-5.7,3.6
	c0.5-0.6,1.5-4.3,1.5-4.3c0.4-1.4,0.6-3,0.5-4.8c0.1-0.3,0.1-0.7-0.1-1c-0.7-10.2-8.2-24-17.8-24.1c-2,0-2,3,0,3.1
	c7.8,0,14.1,12.7,14.7,21.3c0.2,3-0.9,6.1-0.9,6.1c-0.7,4.5-2.2,7-6.1,9.6c-2.6,1.7-5.9,2.4-9.4,2.5c-0.7,0-3.9,0.1-3.9,0.1
	c-3.1-0.1-6.2-0.5-8.8-0.7c-1-0.1-2-0.2-2.9-0.2c-0.7-0.4-0.9-1.6-0.9-1.6c-0.1-1.6-0.6-6.3-0.7-7.1c-0.3-5.3,4.2-11.3,6.7-15.8
	c1-1.7-1.7-3.3-2.6-1.5c-3,5.3-7,11.1-7.1,17.4c0,1.7,0,6,1,8.5c-3.3-0.1-6.5,0-9.7,0.5c-0.9-0.1-4,0.8-4,0.8c-0.1,0-0.2,0-0.3,0.1
	c-3.6,0.8-7.3,1.8-11,2.5c-0.3-0.1-0.6-0.1-0.9,0c-2.8,0.8,0.3-15.8,0.9-17.7c0.7-2.2,2.1-4.4,3.2-6.4c0.9-1.6,1.8-3.1,2.7-4.6
	c0.5-0.8,1-1.6,1.5-2.3c0.9-1.2,1.3-0.8,0.2-1.1c1.9,0.5,2.7-2.4,0.8-2.9c-3-0.8-5.8,5.8-6.8,7.6c-2,3.5-4.1,7-5.2,10.9
	c-0.7,2.5-3,12.4-1.2,17.2c-2.2,0.1-4.4,0.1-6.6-0.4c-1.1-0.2-2.2-0.7-3.1-1.4c-1.7-0.3-3.8-3.6-3.8-3.6c-0.4-0.5-0.9-1-1.3-1.4
	c-2.9-3.1-6-4.4-7.3-8.7c-2.3-7.4,5.2-14.6,10.4-18.5c5.8-4.3,13.1-7.2,19.7-10c7.4-3.1,15.2-4.9,23.3-4.5c2,0.1,2-3,0-3.1
	c-4-0.2-8,0.2-11.8,0.9c2.5-1.8,5.2-3.4,7.8-5.3c3.2-2.3,5.9-5.4,8.5-8.4c6.4-7.3,13.3-14.3,19.4-21.9c5.8-7.3,8.3-14.7,10.8-23.5
	c1.4-4.8,3.6-9.3,4.9-14.1c1.3-4.8,1.5-10,1.7-15c0.6-11.9-0.5-23.5-2-35.3c-0.6-5.1-1.3-10.3-2.4-15.3c-0.2-0.7-0.3-1.8-0.6-2.7
	c0.4,0.1,0.7,0.2,1.1,0.3c0.3,3.4,4.7,8.4,6,10.2c3.7,5,9.1,9.6,14.9,11.9c6,2.5,11.7,2.5,17.2,1.1c7.5,2.5,15.3,3.2,23.1,1.8
	c10.3-1.8,20.6,0,30.9,0.4c19,0.7,38.1-1.9,53.9-13.2c6.6-4.7,12.4-10.5,18.8-15.5c7.1-5.6,12.6-12.9,16.8-20.8
	c4.3-8.1,6.5-17.5,7.1-26.6c0.4-7.6-1.9-14.8-3.2-22.1c1.6-5.9,5.3-11,7.6-16.6c0.7-1.6,1.2-3.4,1.5-5.2c3.5,5.5,9.1,9.3,13.1,14.6
	c7.1,9.3,12.5,18.9,15.2,30.4c3,12.6,4,26.7,3.2,39.6c-0.6,9.7-3.2,19.2-4.5,28.8c-0.2,1.7-0.4,3.4-0.5,5.1c0,0.9,0.1,0.8,0.1,1.5
	C663.5,440.3,663.9,441.3,664.3,441.9z M469.2,617.9L469.2,617.9L469.2,617.9z M349.8,425.3l-37.2,29.5c-6.3,3.5-12.9,6.2-12.9,6.2
	c-8.5,3.4-17.4,5.7-26,9.1c-0.2,0.1-0.4,0.2-0.6,0.4c-4.6,0.1-9.2,0.2-13.9,0.2c-4.8-0.1-9.5-0.1-14.1,0.1l0,0
	c-3.3-6.2-7.6-11.8-11.1-17.6c4.1-1.5,7.8-3.8,11.7-5.6c5.3-2.4,10.8-4.5,16.4-6.5c10.8-3.8,21.9-6.5,33-8.7
	c10.8-2.1,21.7-3.9,32.5-6.3c10.3-2.4,20.8-7.1,31.5-8.2c-2.1,1.6-4.2,3.2-6.2,4.9 M287.7,470.5c-1.9-0.1-3.9-0.1-5.9-0.1
	c6.2-2.1,12.6-4,18.7-6.5c6-2.4,8.9-3.7,10.9-4.9l38.5-29.8c13.5-10,14.5-11.9,23.7-17.3c8.7-5.1,18.1-7.3,27.6-10.4
	c8.1-2.6,15.4-7,23.3-10c0,1.4-0.1,2.9-0.1,4.3c-0.1,5.9,2.4,10.8,7.2,14.1c0.9,0.6,2,1.2,3.1,1.7c0,0.1,0,0.2,0,0.3
	c0,0.4,0.2,0.7,0.3,0.8c0.3,0.5,1.4,2.2,3,4.4c0.4,1.6,0.7,3.2,0.9,4.8c0.9,5.3,1.6,10.7,2.2,16.1c1.2,11,1.7,21.6,1,32.6
	c-0.6,9.5-4.2,17.2-6.8,26.2c-1.2,4.2-2.2,8.5-4.2,12.5c-2.2,4.4-5.5,8.4-8.7,12.1c-2.5,3-5.2,5.9-7.8,8.8
	c-9.3-4.1-19.5-4.7-29.5-4.8c-13-0.2-25.9,0.2-38.9-0.2c-13.4-0.5-26.1-2.8-39.1-5.9c-12.2-3-24.7-2.1-37.1-1.7
	c-11.8,0.3-22.4,3.1-33.9,5.6c-12.8,2.8-25.8,1-38.6,3.8c-6,1.3-11.9,1.4-18,1.4c-2.9,0-5.7-0.3-8.4-1.1c-0.4-0.1-0.8-0.3-1.1-0.5
	c-2.2-1.8-2.4-2.9-2.4-2.9c-0.5-1.7-0.5-3.7-1.1-5.5c4.5-1.4,9.3-2.3,14-2.9c2.9-0.3,5.6-0.9,7.7-3c1.4-1.4-0.8-3.5-2.2-2.2
	c-2.3,2.2-6,2.1-8.9,2.5c-4,0.6-8.1,1.5-12,2.7c-1-1.5-2.4-2.7-3.7-4.1c-0.4-0.4-0.7-0.9-0.9-1.4c-0.4-0.5-0.2-3-0.2-3
	c0.1-0.9,0.4-1.8,0.7-2.7c0.2-0.7,1.2-2.6,1.2-2.6c1.1-2.2,2.5-4.4,3.3-6.1c2.8-1,5.7-1.4,8.6-1.8c3.6-0.6,7-1.7,10.6-1.9
	c1.9-0.1,2-3.2,0-3.1c-3.4,0.2-6.9,0.9-10.2,1.8c-2.9,0.7-5.9,0.9-8.8,1.7c1.9-10.4,19.2-12,27.6-13.6c8.3-1.6,16.5-2.5,24.9-1.6
	c8.2,0.9,16.4-2.4,24.5-3.4c7.9-0.9,16.2,0,24.1,0c0,0,1.1,0,26.5,0.1c0,0,74.1-1.2,86-6.9c7.5-3.6,2.3-2.8,2.3-2.8
	s-47.6,3-65.8,4.9C297.6,470.8,287.7,470.5,287.7,470.5z M91.8,510.5c-1.3-1.6-1.8-3.6-2.1-5.7c5.5-0.8,10.5-3.6,16.1-4.2
	c1.9-0.2,1.9-3.3,0-3.1c-5.7,0.7-10.9,3.5-16.6,4.3c0-0.1,0-0.2-0.1-0.3c-0.4-2.1-1.8-3.5-3.5-4.7c-1.6-1.3-1.4-2.7-1.4-2.7
	c0-1.2,0.4-2.7,0.7-4.2c4.9-0.7,9.6-2.7,14.6-3.2c1.9-0.2,2-3.3,0-3.1c-4.8,0.6-9.4,2.4-14.2,3.2c0-0.4,0-0.7-0.1-1
	c-0.6-2.4-1.1-3.5,0.8-5.7c1.8-1.9,4.8-2.9,7.2-3.8c9.2-3.3,19.2-5.1,29-6.2c10.6-1.1,21.2-1.2,31.8-2.4c9.4-1,17.8-5.2,27.1-6.7
	c0,0.1,0.1,0.3,0.1,0.4c1.2,4.9,2.6,11.2,6,15.3c-1.3,0.3-2.6,0.6-3.9,0.9c-8.9,2-20.9,5.4-20.9,16.5c0,0.2,0,0.4,0.1,0.6
	c-0.9,2-2,4-2.9,6c-3.6-0.5-8.5,1.5-11.6,2.4c-7.7,2.2-15.4,4.5-23.3,6.3c-9.7,2.2-20.1,7.3-29.9,3.1
	C92.9,511.8,91.8,510.5,91.8,510.5z M194.7,387.5c9-13.4,20.9-24,32.9-34.5c9.2-8.1,23.3-16.9,36.2-14.7c0.2,0.3,0.6,0.6,1.2,0.5
	c0.4,0,0.8,0,1.2,0c0.4,0.1,0.8,0.3,1.3,0.4c0.2,0.1,0.4,0.1,0.5,0.1c5.2,2.3,6.3,11.9,6,16.5c-0.5,8.3-5.8,15.8-11.1,21.8
	c-8.5,9.8-19.1,17.6-27.2,27.8c-7.6,9.5-12.3,21-10.8,33.3c1.5,12.5,11,21.8,16.9,32.3c-2.7,0.3-5.5,0.6-8.3,1.2
	c-4.5,0.9-8.9,1.8-13.6,1.9c-4.9,0.1-9.7-0.6-14.6-0.3c-4.5,0.3-9,1.1-13.4,2c-0.3-0.8-1.3-1.1-2.1-0.8c-3.7-4.2-4.8-11-6-16.1
	c-1.9-8.1-3.2-16.4-3.4-24.7C180,417.2,185.3,401.5,194.7,387.5z M452.9,388.5c-3.1-2.8-8.9-2.2-8.6-6.8c0.1-0.1,0.2-0.2,0.3-0.3
	c0.2-0.4,0.3-0.7,0.4-1.2c0-0.3,0-0.6-0.1-0.8c0-0.1,0-0.2,0.1-0.3c0.1-0.2,0.1-0.5,0.1-0.7c2-1,7.6-1.7,8.4-1.6
	c1.9,0.3,3.9,0.8,5.7,1.3c2.2,0.5,18.2,5.5,11.7,8.2c-2.9,1.2-5.2-0.1-7.7,2.4c-2.1,2-0.4,6.1-2.9,7.8c-2.2,1.6-4.2,1.1-6.1-1.6
	c0.1-0.9,0.2-1.9,0.2-2.8C454.4,391,453.8,389.2,452.9,388.5z M480.2,433.6c-0.2,0.1-0.5,0.2-0.7,0.3c-0.3,0-0.6,0.1-0.8,0.3
	c-3.4,0.9-7,1.1-10.8,0.4c-5.8-1.1-11.1-5-15.2-9c-2.1-2-3.8-4.4-5.3-6.9c-0.2-0.4-2.1-3-2.8-4.3c0.8,0.1,1.6,0.2,2.3,0.3
	c5.2,0.4,8-2.3,11.4-5.5c1.5,2.5,3.8,4.4,7.2,6c9.8,4.5,19.3,9.7,30.3,10.1c0.4,0,0.7,0,1.1,0c-5,3.1-10.2,6.4-15.7,8.2
	C480.9,433.4,480.5,433.4,480.2,433.6z M416.7,363.4c-0.1-5.1,0.5-10.2,0.3-15.3c-0.2-4-3.6-6.6-4.9-10.1c-1.6-4.3-0.4-10.7,0-15.2
	c0.6-6.3,3.6-11.9,6.7-17.3c1.9-3.3,3.9-6.5,5.9-9.8c0.2-0.2,0.3-0.4,0.4-0.6c0.8-1.3,1.6-2.6,2.4-3.9c3.2-5.2,3.9-9.9,5.5-15.6
	c0.5-1.9-2.4-2.7-2.9-0.8c-0.9,3.3-1.1,6.8-2.5,10c-1.2,2.6-2.7,5.1-4.2,7.5c-2.4-3-2.8-13-3.2-15.7c-1-8.2,2.8-16.3-0.8-24
	c-2-4.2-3.9-7.6-4.7-12.4c-0.9-5.4-2.2-10.4-4-15.6c-3.1-9.1-5.5-19.6-4.1-29.2c0.3-2.1,1-6,3.7-6.2c2-0.2,4.5,1.2,6.2,2.1
	c0.7,0.4,1.4,0.7,2.1,1.1c4.4,3.3,8,7.3,11.8,11.2c3.5,3.6,7.6,6.7,11.1,10.4c3.7,3.8,5.2,9.2,8.6,13.3c2,2.4,4.3,4.7,6.1,7.2
	c1.9,2.7,2.3,6,2.7,9.1c0.3,2.5,1,4.4,1.9,6.7c0.5,1.2-4,2-4.6,2.4c-3.3,2.2-3,6.5-6.2,8.4c-0.7,0.4-1.5,1.6-1.8,2.3
	c-0.7,2.1-1.6,1.5-3.2,1.9c-3.1,0.8-2.8,4.9-2.1,7.3c0.6,1.9,3.5,1.1,2.9-0.8c-1.5-5.2,3.1-2.1,4.6-5.8c0.9-2.1,2.3-2.5,3.6-3.8
	c2.1-2.1,0.6-5.6,4.2-7.1c2.2-0.9,5.6-0.8,5.6-4.1c0-1.8-1.2-3.6-1.8-5.2c-0.9-2.6-0.7-5.8-1.4-8.5c-1.1-4.5-4.8-7.7-7.7-11.1
	c-3.8-4.5-5.7-10.1-9.6-14.5c-3.7-4.2-8.4-7.5-12.3-11.5c-0.4-0.4-0.7-0.8-1.1-1.1c2.5,1.1,5,2.2,7.2,3.8c4,2.8,7.9,6.3,11.7,9.4
	c7,5.6,12.8,12.5,19.4,18.6c7.3,6.7,12,15,12.2,25c0,2,3.1,2,3.1,0c-0.1-3.6-0.7-6.8-1.7-9.9c12.1,0.9,24.1,1.1,36.2,0.1
	c7-0.6,13.7-2.3,20.8-1.2c6.3,1,12.6,3.6,18.4,6.3c-2.3,2.1-4.6,4.1-7,5.9c-4,3-8.3,5.4-11.4,9.5c-1.2,1.6,1.5,3.1,2.6,1.5
	c3-3.9,7.6-6.3,11.4-9.3c4.2-3.2,8-7.2,11.9-10.8c7.4-6.9,14.2-14.2,20.9-21.8c5.9-6.7,15-13.6,24.5-16.3c-0.7,0.6-1.4,1.3-2.1,2
	c-2.7,2.9-4.8,5.7-7.9,8.2c-4.1,3.2-7.8,6.7-11.4,10.4c-3.1,3.2-6.2,6.5-9.3,9.8c-3,3.1-6.5,5.9-9.1,9.4c-2.1,2.8-3.2,5.5-3.4,8.9
	c-0.1,1.6,0.5,3.4,0.9,4.8c0.9,4.1-1.9,7.2-4,10.3c-0.7,1,0.2,2.2,1.3,2.3c2.4,0.1,4.6-0.4,6.7-1.2c0,0.1,0,0.1,0,0.2
	c-0.1,0.8,0.2,1.7,1.1,1.9c0.7,0.1,4.4,0.5,3.7,2c-0.3,0.6-0.7,1.6-0.4,2.3c0.7,2.1,2.5,2.7,2.5,4.9c0,1.9,0.9,3.3,2.5,4.2
	c2.1,1.2,4.2,1.5,5.5,3.8c1.5,2.6,1.5,5.5,1.5,8.4c0,2,3.1,2,3.1,0c0-4.2-0.5-7.5-2.7-11.2c-0.9-1.5-2-2.4-3.6-3.1
	c-2.6-1.1-3-1.6-3.4-4.4c-0.1-0.7-0.5-1.5-1.1-1.9c-1.6-1-0.2-2.8-0.2-4.2c0-2.8-2.9-3.1-5.1-3.3c0.1-0.4,0.1-0.8,0.2-1.2
	c0.2-1-0.7-2.3-1.9-1.9c-1.8,0.6-3.4,1.3-5.2,1.6c1.2-1.8,2.2-3.7,2.7-6c1-4.6-1.9-8.3,0.5-13.1c1.7-3.5,5.2-6.2,7.9-8.9
	c3.2-3.2,6.2-6.5,9.3-9.8c2.7-2.9,5.5-5.7,8.4-8.3c3.2-2.9,6.8-5.2,9.7-8.4c2.3-2.6,4.2-5.4,7.1-7.4c4.2-2.7,8.6-1.3,13-0.6
	c9.6,3.9,11.7,15,11.7,24.3c-0.1,12.2-1.2,23.1-6.9,34.2c-2.2,4.3-5,8.1-6.8,12.7c-1.9,4.8-1.1,10.4-1,15.4c0.2,7.3,0,19.9-9.5,20.8
	c-1.9,0.2-2,3.2,0,3c7.9-0.8,11.2-7.4,12.1-14.7c0.6-4.8,0.4-9.5,0.3-14.3c-0.1-2.4,0.2-4.6,0.6-6.6c1.5,5.1,4.8,10.5,5.4,14.9
	c0.5,4.1,0.7,8.1,0.4,12.2c-0.2,0.3-0.2,0.7-0.1,1.1v0.1c-0.2,2.8-0.7,5.5-1.5,8.2c-1.3,4.6-4,8.6-6.1,12.9c0-0.6-0.1-1.2-0.1-1.9
	c-0.1-2-3.1-2-3.1,0c0.2,9,3.7,17.4,4.2,26.3c0.5,9.8-2.3,20.1-6.7,28.9c-4.1,8.2-10.1,15.4-17.3,21c-6.3,4.8-12,10.5-18.5,15.2
	c-15.4,11-34.6,12.4-52.9,11.8c-8.7-0.3-17.4-1.8-26.1-0.9c-3.9,0.4-7.6,1.3-11.6,1.3c-3.2,0-6.3-0.5-9.4-1.2
	c6.3-2.6,12.4-6.6,18.3-10.1c0.2-0.1,0.4-0.3,0.5-0.5c6-1.1,11.8-3.8,16.1-8.3c4-4.1,9.7-11.8,4.8-17.2c-1.3-1.5-3.5,0.7-2.2,2.2
	c4.5,4.9-5.5,13.9-9.1,16.3c-6.9,4.6-15.4,5.1-23.3,3.9c-7.3-1.1-13.9-5.7-20.7-8.4c-6.6-2.6-9.5-5.7-9.6-12.9c0-0.1,0-0.1,0-0.2
	c4.3-1.2,5-4.4,5.9-8.9c0.4-2.1,6.7-1.7,8.5-3.1c0.3-0.2,0.5-0.4,0.8-0.7c0.2,0,0.4,0,0.6-0.1c6.8-2.6,8.3-10.6,12-16.1
	c1.1-1.6-1.5-3.2-2.6-1.5c-2.8,4.1-4.3,11.1-8.7,13.9c-1.1-6-14.5-8.3-18.8-9.3c-1.9-0.4-7.1-0.5-11.1,0.6c2.2-4.3,5.3-8.2,6.8-12.8
	c0.6-1.9-2.3-2.7-2.9-0.8c-1.8,5.7-5.9,10.2-8,15.6c-0.5,0.6-0.8,1.3-0.7,2c-0.3,0.9-0.4,1.9-0.6,2.9c-0.1,0.8,0.4,1.3,1,1.4
	c0.5,2.6,2.3,4.9,5.4,5.8c2.7,0.8,4.6,2.3,4.2,5.6c-0.1,1.4,0.4,2.2,1.1,3.3c0.8,1.2,2.5,2.1,4.1,2.3c0.1,2.1,0.3,4,0.8,5.6
	c-1.7,1.6-3.4,3.3-5.3,4.7c-2.5,1.7-5.9,0.6-8.6,0.1c-6.6-1.3-13.1-3.7-15.3-10.7c-2.4-7.6,3.7-19.2-2.1-25.5
	c-1.3-1.4-3.5,0.7-2.2,2.2c1.7,1.9,1.5,4.9,1.2,7.4c-1.1-1.4-2.5-2.7-3.7-4.4C417.5,375.1,416.8,369.2,416.7,363.4z M710.7,504
	c5.6-8.1,9.6-16.9,13-26.1c3-8.1,5.3-16.2,4.9-24.9c-0.5-9.7-2.2-20.2-4.8-29.6c-2.1-7.7-7-14.2-12.4-20
	c-5.5-5.9-12.2-11.8-19.8-14.9c-3.4-1.4-7-1.4-10.2-3.4c-3.4-2.1-5.3-6.8-7.2-10.1c-2.5-4.3-4.8-8.6-6.9-13.1
	c-1.9-3.9-2.5-9-4.8-12.5c-0.1-0.2-0.3-0.4-0.5-0.5c-2.1-4.6-4.6-9-7.6-13.1c-5.4-7.5-15.2-13.4-18-22.4c0.1-2.2,0.1-4.4,0.1-6.6
	c-0.1-4.9-0.7-9.6-2.5-14.2c-1.8-4.5-6.2-11.2-2.7-15.8c0.3-0.3,0.3-0.7,0.3-1c0.9-1.7,2-3.5,3-5.4c6.2-11.4,7.1-23,7.3-35.7
	c0.2-9.3-1.7-19-9.7-24.8c-0.6-0.4-1.2-0.8-1.8-1.1c-0.2-0.6-0.6-1.1-1.4-1.1c-0.4,0-0.8-0.1-1.1-0.1c-13.2-5.6-29.1,3.3-39.1,11.9
	c-2.8,2.4-5.4,5.2-7.7,8.2c-4.4,5.8-10.2,10.7-15.4,15.8c-1.9,1.8-3.8,3.7-5.7,5.6c-11.1-5.4-22.1-8.6-34.6-6.9
	c-14.8,2.1-29.6,1.9-44.4,0.7c-1.6-3.6-3.9-7.1-6.6-10.4c-3.6-4.4-8.4-7.9-12.4-11.9c-3.9-4-7.5-7.8-11.9-11.3
	c-3.7-2.9-7.4-6-11.1-8.9c-4.5-3.4-10.3-5.3-15.2-8.3c-1.1-0.7-2.7-1.8-4.5-2.8c0,0-0.1,0-0.1-0.1c-0.1-0.1-0.2-0.1-0.4-0.2
	c-4.7-2.6-10.6-4.8-13.3-0.3c-4.6,7.6-2.3,18.3-0.7,26.5c1.2,5.9,3.4,11.5,5.1,17.3c1.6,5.5,1.6,11.3,3.9,16.6
	c1.1,2.5,2.8,4.8,3.8,7.4c1.2,3.1,0,6.6-0.6,9.7c-0.9,4.8-0.3,10,0.6,14.8c0.7,3.7,0.9,10.8,4.1,13.9c-2.5,3.9-4.8,8-7.1,12.1
	c-5.2,9.3-6.6,19.4-5.8,29.9c0.3,4.4,4.7,7.1,5.2,11.2c0.6,5-0.2,10.3-0.3,15.3c-0.1,4.6,0.6,9.2,2.3,13.5c1.7,4.3,6.3,7.4,7.8,11.6
	c-8,3-15.4,7.3-23.5,10.1c-8.5,2.9-17.1,4.8-25.1,8.9c-4.2,2.2-8.2,4.7-12,7.5c-0.2-0.2-0.6-0.3-1-0.3c-10.8,0.3-21.2,5.1-31.7,7.6
	c-11.3,2.8-22.8,4.8-34.3,6.8c-11.2,2-22.3,4.8-33.1,8.4c-4.7,1.5-9.3,3.3-13.8,5.2c-5.6,2.4-10.9,5.7-16.7,7.7
	c-3.1-5.8-5.3-11.9-4.8-19.3c0.9-15.1,12.4-27.1,22.6-37c9.9-9.6,21-18.5,25.5-32c2.5-7.5,1.5-25.4-9.2-26.3
	c-13.3-3.6-27.5,4.5-37.7,12.3c-6.3,4.8-12.4,10.4-18.3,15.8c-3.5,3.2-6.4,7.3-9.4,10.9c-3.1,3.7-6.3,7.3-9.1,11.3
	c-10.1,14.2-14.9,30.9-14.7,48.2c0.1,8.1,1.4,16.1,3.1,24c-5,0.8-9.8,2.6-14.6,4.2c-6.2,2-12.7,2.6-19.2,3.1
	c-11.4,0.8-22.8,1.1-34.1,3c-8.8,1.5-18.7,3.2-26.5,7.8c-2.4,1.4-4.4,3.7-4.8,6.5c-0.2,1.3,0.5,2.7,1,3.9c0.8,2-1,5.9-1.2,8.1
	c-0.3,2.8,2,3.8,3.8,5.4c2.4,2,1.9,7.8,3.4,10.7c0.3,0.5,0.6,1,1,1.5c0,0,0.7,1.1,1.6,1.7c4.6,3.7,12.3,3.6,17.6,2.8
	c5.2-0.8,10.1-2.6,15.2-3.9c6.1-1.5,12.2-2.7,18.1-4.6c2.7-0.9,5.4-1.6,8.1-2.4c1.9-0.6,5.7-2.1,8.5-2c-1.4,3.8-1.6,7.6,2.1,11.2
	c1.9,1.8,3.2,3.7,3.4,6.4c0.2,2.2,0.1,3.9,1.3,5.8c1.6,2.7,6.3,3.6,9.1,3.9c6.1,0.6,12.7,0.6,18.8-0.2c6.6-0.9,12.7-2.6,19.5-2.6
	c13.2,0.1,25.9-2,38.6-5.7c6.6-1.9,13.8-1.9,20.6-2.1c6.7-0.2,13.5-0.5,20.2-0.2c13.8,0.6,27,5.5,40.7,7c13.9,1.5,28,1.2,42,1.2
	c12.4-0.1,25.9-0.7,37.6,4.2c-2.4,2.6-4.8,5.3-7.2,7.9c-5,5.7-11.5,9.2-17.2,13.9c-0.5,0.8-2.3,2.3-2.3,2.3
	c-2.6,0.8-5.2,1.8-7.7,2.9c-7.7,3.4-15.6,6.8-22,12.3c-5.1,4.3-9.1,10.5-8.6,17.4c0.2,2.7,1.5,5.1,3.1,7.2c1.1,1.4,3,2.6,4.4,3.6
	c1.9,1.4,3.4,3.6,5.1,5.3c4.4,4.2,10.4,3.9,16.1,3.1c0.4,0,0.9-0.1,1.4-0.2c0.6-0.1,1.2-0.2,1.8-0.3c4.5-0.7,8.9-2,13.4-2.9
	c5.6-1.1,11.1-0.6,16.6-0.1c3.2,0.3,6.7,0.6,10.1,0.6c0.2,0,1.9,0,1.9,0c4.1-0.2,8.1-0.9,11.7-2.8c1.5-0.8,2.9-1.9,4-3.3
	c0,0,1.4-0.5,1.9-0.6c0.2-0.3,3.5-2.3,4.2-2.8c1.5-1,2.9-2.2,4.3-3.3c4-3.2,8.1-6.3,12.3-9.1c7.6-5.2,15.8-9.4,23.9-13.8
	c12.5-6.9,26.8-10,40.9-12.4c-2.6,1.3-5.3,2.5-8,3.5c-5.7,2.1-10.9,5-16.2,8c-0.2,0.1-0.3,0.2-0.4,0.4c-9.7-0.8-19.1,1.3-27.1,6.9
	c-13.3,9.4-18.8,25.9-11,40.6c3.7,7,10.5,8.6,17.8,8.9c11.1,0.4,22.4-1.8,33.5-2.5c11.3-0.8,22.3-2,33.4-4.6c2.3-0.5,4.3-1.8,6-3.3
	c0.2,0.2,0.5,0.3,0.9,0.3h0.1c2.8,1.8,6.2,1.5,9.5,1c6.2-0.9,12.6-2.1,18.8-3.5c16.3-3.6,32.9-5,49.4-7.1c15.8-2,31.8-2.5,47.7-3.8
	c7-0.6,14-1.5,21-2.6c2.3-0.4,5.1-0.4,7.3-1.5c2-0.9,2.8-2.6,4.2-3.9c0.9-0.9,1.5-2.1,1.7-3.3c0,0,0,0,0,0c0.9-3.7-0.5-8.2-0.5-11.9
	c0.1-8.2-0.4-15.5-3.2-23.3c-3.5-10-8.8-19.4-14.3-28.6c0.2-0.4,0.2-0.8,0-1.2c2.1-3.6,3.8-7.3,6.2-10.7
	C704.3,511.2,707.9,508,710.7,504"/>
</svg>
