<svg width="1721" height="1066" viewBox="0 0 1721 1066" fill="none" xmlns="http://www.w3.org/2000/svg">
<rect x="14.5464" y="386.344" width="75.7895" height="75.7895" fill="#FBDC4C"/>
<rect x="0.943359" y="677.842" width="53.4413" height="53.4413" fill="#CBD4E4"/>
<rect x="935" y="69.8663" width="53.4413" height="53.4413" fill="#CBD4E4"/>
<rect x="543" y="671" width="53.4413" height="53.4413" fill="#CBD4E4"/>
<path d="M1612.81 423.632H1666.25V477.073H1612.81V423.632Z" fill="#EE6C4E"/>
<path d="M116.571 69.583H50.498V135.656L116.571 69.583Z" fill="#EE6C4E"/>
<path d="M143.956 636.955L143.956 584L91.0001 584L143.956 636.955Z" fill="#EE6C4E"/>
<path d="M820.073 116H754V182.073L820.073 116Z" fill="#EE6C4E"/>
<path d="M312 478H270V520L312 478Z" fill="#54C7EE"/>
<path d="M1456 514L1456 580.073L1522.07 580.073L1456 514Z" fill="#4162AA"/>
<path d="M373.854 106.356L373.854 133.563L401.06 133.563L373.854 106.356Z" fill="#54C7EE"/>
<path d="M373.854 106.356L401.061 106.356L401.061 79.1497L373.854 106.356Z" fill="#54C7EE"/>
<path d="M372.882 106.356H345.676V133.563L372.882 106.356Z" fill="#54C7EE"/>
<path d="M373.854 106.356L373.854 79.1498L346.648 79.1498L373.854 106.356Z" fill="#54C7EE"/>
<path d="M1568.94 257.85L1568.94 297.688L1608.78 297.688L1568.94 257.85Z" fill="#CBD4E4"/>
<path d="M1568.94 257.85L1608.78 257.85L1608.78 218.012L1568.94 257.85Z" fill="#CBD4E4"/>
<path d="M1567.52 257.85H1527.68V297.688L1567.52 257.85Z" fill="#CBD4E4"/>
<path d="M1568.94 257.85L1568.94 218.012L1529.1 218.012L1568.94 257.85Z" fill="#CBD4E4"/>
<path d="M797.912 842.088L797.912 893.175L849 893.175L797.912 842.088Z" fill="#EE6C4E"/>
<path d="M797.913 842.088L849 842.088L849 791L797.913 842.088Z" fill="#EE6C4E"/>
<path d="M796.088 842.088H745V893.176L796.088 842.088Z" fill="#EE6C4E"/>
<path d="M797.912 842.088L797.912 791L746.824 791L797.912 842.088Z" fill="#EE6C4E"/>
<path d="M55.8467 875.955L55.8467 928.911L108.802 928.911L55.8467 875.955Z" fill="#4162AA"/>
<path d="M55.8468 875.955L108.802 875.955L108.802 823L55.8468 875.955Z" fill="#4162AA"/>
<path d="M53.9555 875.955H1L1 928.911L53.9555 875.955Z" fill="#4162AA"/>
<path d="M55.8467 875.955L55.8467 823L2.89122 823L55.8467 875.955Z" fill="#4162AA"/>
<path d="M379.21 335.79L379.21 375.579L419 375.579L379.21 335.79Z" fill="#CBD4E4"/>
<path d="M379.21 335.79L419 335.79L419 296L379.21 335.79Z" fill="#CBD4E4"/>
<path d="M377.79 335.79H338V375.579L377.79 335.79Z" fill="#CBD4E4"/>
<path d="M379.21 335.79L379.21 296L339.421 296L379.21 335.79Z" fill="#CBD4E4"/>
<rect x="272.802" y="175.344" width="31.0931" height="31.0931" fill="#4162AA"/>
<rect x="1441" y="902" width="31.0931" height="31.0931" fill="#EE6C4E"/>
<rect x="1425" y="168.429" width="31.0931" height="31.0931" fill="#EE6C4E"/>
<rect x="1066.17" y="99.9877" width="31.0931" height="31.0931" fill="#4162AA"/>
<rect x="426" y="520" width="31.0931" height="31.0931" fill="#4162AA"/>
<rect x="461.68" y="21" width="58.2996" height="58.2996" fill="#FBDC4C"/>
<rect x="226" y="928" width="58.2996" height="58.2996" fill="#FBDC4C"/>
<rect x="791" y="413" width="58.2996" height="58.2996" fill="#FBDC4C"/>
<rect x="1615" y="975" width="55" height="55" fill="#54C7EE"/>
<rect x="220.708" y="23.915" width="46.6397" height="46.6397" rx="23.3198" fill="#FBDC4C"/>
<rect x="1510.36" y="757" width="36.9231" height="36.9231" rx="18.4615" fill="#FBDC4C"/>
<rect x="1339" y="46" width="46.6397" height="46.6397" rx="23.3198" fill="#FBDC4C"/>
<rect x="1251" y="1019" width="46.6397" height="46.6397" rx="23.3198" fill="#54C7EE"/>
<rect x="117" y="285" width="46.6397" height="46.6397" rx="23.3198" fill="#EE6C4E"/>
<rect x="255" y="701" width="46.6397" height="46.6397" rx="23.3198" fill="#EE6C4E"/>
<rect x="1259" y="323.632" width="29.1498" height="29.1498" rx="14.5749" fill="#FBDC4C"/>
<rect x="1178" y="493.632" width="53.4413" height="53.4413" fill="#EE6C4E"/>
<path d="M1045.33 343.714L1045.33 378.796L1080.42 378.796L1045.33 343.714Z" fill="#2A4786"/>
<path d="M1045.33 343.714L1080.42 343.714L1080.42 308.632L1045.33 343.714Z" fill="#2A4786"/>
<path d="M1044.08 343.714H1009V378.796L1044.08 343.714Z" fill="#2A4786"/>
<path d="M1045.33 343.714L1045.33 308.632L1010.25 308.632L1045.33 343.714Z" fill="#2A4786"/>
<path d="M1050 1018.51L1122.87 1018.51L1122.87 945.632L1050 1018.51Z" fill="#EE6C4E"/>
<rect x="627" y="501" width="53.4413" height="53.4413" fill="#54C7EE"/>
<path d="M1235.81 735.705L1271.35 756.229L1291.88 720.68L1235.81 735.705Z" fill="#CBD4E4"/>
<path d="M1235.81 735.705L1256.33 700.156L1220.78 679.632L1235.81 735.705Z" fill="#CBD4E4"/>
<path d="M1235.07 736.974L1214.55 772.523L1250.1 793.047L1235.07 736.974Z" fill="#CBD4E4"/>
<path d="M1235.81 735.705L1200.26 715.18L1179.73 750.729L1235.81 735.705Z" fill="#CBD4E4"/>
<path d="M546.271 971.271L546.271 912L487 912L546.271 971.271Z" fill="#FBDC4C"/>
<path d="M1052.48 641.632H966V728.109L1052.48 641.632Z" fill="#4162AA"/>
<path d="M520 313.875L592.875 313.875L592.875 241L520 313.875Z" fill="#EE6C4E"/>
<path d="M1720.87 787L1648 787L1648 859.874L1720.87 787Z" fill="#4162AA"/>
<path d="M1179.8 31.386L1199.69 42.874L1211.18 22.9762L1179.8 31.386Z" fill="#54C7EE"/>
<path d="M1179.8 31.3859L1191.28 11.488L1171.39 9.41468e-06L1179.8 31.3859Z" fill="#54C7EE"/>
<path d="M1179.39 32.0965L1167.9 51.9944L1187.8 63.4824L1179.39 32.0965Z" fill="#54C7EE"/>
<path d="M1179.8 31.386L1159.9 19.8979L1148.41 39.7958L1179.8 31.386Z" fill="#54C7EE"/>
</svg>
